<svg width="298" height="65" fill="none" xmlns="http://www.w3.org/2000/svg"><path d="M32.5 62.5c16.569 0 30-13.431 30-30 0-16.569-13.431-30-30-30-16.569 0-30 13.431-30 30 0 16.569 13.431 30 30 30z" stroke="#5C8692" stroke-width="5"/><path d="M48.782 24c.247 2.569-.683 5.145-2.586 7.162L34.807 43.27l-15.686 1.51L17.8 31.06l11.408-12.09c1.903-2.017 4.623-3.31 7.56-3.592l10.278.246L48.782 24zm-9.388-.364L9.849 53.182m31.515-17.727H27.576m11.818-11.819H25.606" stroke="#5C8692" stroke-width="5" stroke-linecap="round" stroke-linejoin="round"/><path d="M97.586 31.117c2.37.182 4.303.625 5.801 1.328 1.51.69 2.597 1.543 3.261 2.559.677 1.003 1.016 2.083 1.016 3.242 0 1.654-.443 3.066-1.328 4.238-.886 1.16-2.155 2.038-3.809 2.637-1.653.586-3.62.879-5.898.879-.573 0-1.556-.02-2.95-.059a147.61 147.61 0 00-4.179-.058c-2.747 0-4.798.039-6.152.117v-.8c.885-.04 1.53-.144 1.933-.313.404-.17.677-.482.82-.938.157-.456.235-1.185.235-2.187V21.918c0-1.003-.078-1.732-.234-2.188-.144-.455-.417-.768-.82-.937-.404-.17-1.049-.273-1.934-.313v-.8c1.34.078 3.365.117 6.074.117 1.068 0 2.252-.013 3.555-.04 1.302-.025 2.207-.038 2.714-.038 2.149 0 3.959.267 5.43.8 1.484.521 2.598 1.257 3.34 2.208.742.937 1.113 2.03 1.113 3.28 0 .99-.286 1.96-.859 2.911-.573.95-1.465 1.797-2.676 2.539-1.198.73-2.682 1.256-4.453 1.582v.078zm-3.164-.156c1.732 0 2.943-.592 3.633-1.777.703-1.185 1.054-2.767 1.054-4.747 0-2.005-.312-3.496-.937-4.472-.625-.99-1.621-1.485-2.988-1.485-.717 0-1.25.098-1.602.293-.338.183-.573.515-.703.997-.117.468-.176 1.184-.176 2.148v9.043h1.719zm-1.719 10.8c0 .964.065 1.674.195 2.13.144.455.404.768.782.937.377.17.97.254 1.777.254 3.71 0 5.566-2.337 5.566-7.012 0-2.096-.533-3.691-1.601-4.785-1.055-1.094-2.734-1.64-5.04-1.64h-1.679v10.117zm24.531-8.124c-.04.39-.059 1.015-.059 1.875 0 1.77.247 3.242.742 4.414.495 1.159 1.133 2.011 1.914 2.558.794.534 1.641.801 2.539.801 2.201 0 3.965-1.068 5.293-3.203l.703.234a9.955 9.955 0 01-1.582 3.067c-.703.937-1.601 1.706-2.695 2.304-1.081.586-2.318.88-3.711.88-1.836 0-3.45-.391-4.844-1.172-1.38-.782-2.461-1.967-3.242-3.555-.768-1.602-1.152-3.587-1.152-5.957 0-2.422.416-4.46 1.25-6.114.833-1.666 1.985-2.916 3.457-3.75 1.471-.833 3.17-1.25 5.097-1.25 5.014 0 7.52 2.956 7.52 8.868h-11.23zm6.191-.762c.039-2.083-.176-3.815-.645-5.195-.455-1.38-1.152-2.07-2.089-2.07-.951 0-1.745.592-2.383 1.777-.625 1.172-1.009 3.001-1.153 5.488h6.27zm19.218-3.75c0-1.107-.267-1.98-.801-2.617-.521-.638-1.341-.957-2.461-.957-.521 0-1.041.084-1.562.254-.521.156-.951.397-1.289.722.742.248 1.321.638 1.738 1.172.417.521.625 1.179.625 1.973a2.77 2.77 0 01-.41 1.484c-.261.43-.638.775-1.133 1.035-.495.248-1.061.371-1.699.371-.86 0-1.55-.292-2.071-.878-.507-.586-.761-1.322-.761-2.207 0-1.38.742-2.5 2.226-3.36 1.628-.898 3.659-1.348 6.094-1.348 2.734 0 4.681.6 5.84 1.797.56.56.937 1.257 1.133 2.09.195.834.293 1.999.293 3.496v10.88c0 .65.058 1.113.175 1.386.131.26.352.39.664.39.43 0 .925-.227 1.485-.683l.41.684a6.051 6.051 0 01-1.992 1.113c-.716.234-1.576.351-2.578.351-1.354 0-2.331-.299-2.93-.898-.599-.599-.898-1.38-.898-2.344-.651 1.081-1.504 1.895-2.559 2.442a7.38 7.38 0 01-3.379.8c-1.523 0-2.747-.397-3.672-1.191-.911-.807-1.367-1.927-1.367-3.36 0-1.393.456-2.545 1.367-3.456.912-.912 2.324-1.72 4.238-2.422l2.032-.762c1.146-.443 1.972-.892 2.48-1.348.508-.455.762-.957.762-1.504v-3.105zm0 4.746c-.169.287-.449.586-.84.898-.378.3-.924.671-1.641 1.114-.846.586-1.51 1.25-1.992 1.992-.481.73-.722 1.64-.722 2.734 0 1.042.227 1.823.683 2.344.456.508 1.055.762 1.797.762 1.055 0 1.96-.547 2.715-1.64V33.87zm30.39 7.773c0 1.238.189 2.136.566 2.696.391.547 1.055.82 1.992.82V46a26.56 26.56 0 00-2.48-.117c-2.344 0-4.29.189-5.84.566v-3.613c-1.211 2.487-3.359 3.73-6.445 3.73-1.992 0-3.444-.52-4.356-1.562-.442-.495-.761-1.152-.957-1.973-.182-.82-.273-1.894-.273-3.222V29.672c0-1.224-.195-2.116-.586-2.676-.378-.56-1.035-.84-1.973-.84v-.84c.847.079 1.673.118 2.481.118 2.33 0 4.277-.183 5.84-.547v16.562c0 1.107.162 1.947.488 2.52.338.56.97.84 1.894.84.703 0 1.348-.202 1.934-.606a4.396 4.396 0 001.426-1.68 5.297 5.297 0 00.527-2.363V29.672c0-1.224-.195-2.116-.586-2.676-.377-.56-1.035-.84-1.973-.84v-.84c.847.079 1.674.118 2.481.118 2.331 0 4.277-.183 5.84-.547v16.758zm18.007-16.288v.8h-4.727V42.29c0 .794.143 1.36.43 1.7.286.325.729.488 1.328.488 1.133 0 2.038-.801 2.715-2.403l.683.371c-1.002 2.748-2.825 4.121-5.468 4.121-1.758 0-3.093-.455-4.004-1.367-.56-.547-.944-1.237-1.153-2.07-.195-.846-.292-2.012-.292-3.496V26.156h-3.36v-.8h3.36v-5.313c2.2 0 4.121-.43 5.761-1.29v6.602h4.727zm14.647-.04c1.25.079 2.546.118 3.887.118 1.341 0 2.37-.04 3.086-.118v.801c-.56.143-1.068.475-1.523.996-.443.521-.86 1.335-1.25 2.442l-7.149 20.117c-.534 1.393-1.12 2.344-1.758 2.851-.781.664-1.946.996-3.496.996-.69 0-1.373-.117-2.05-.351a3.877 3.877 0 01-1.661-1.055c-.429-.481-.644-1.08-.644-1.797 0-.82.293-1.477.879-1.972.586-.495 1.36-.742 2.324-.742.898 0 1.621.22 2.168.664.56.442.84 1.06.84 1.855 0 .547-.182 1.055-.547 1.523-.352.482-.84.84-1.465 1.075.195.026.501.039.918.039 1.667 0 2.884-1.055 3.652-3.164l.645-1.914-8.496-19.278c-.417-.924-.833-1.53-1.25-1.816-.404-.287-.814-.43-1.231-.43v-.84c1.758.157 3.588.235 5.489.235 1.575 0 3.431-.078 5.566-.235v.84c-.573 0-1.022.02-1.348.059a1.898 1.898 0 00-.839.293c-.222.156-.332.41-.332.762 0 .312.091.69.273 1.132l4.902 11.817 2.735-7.696c.429-1.276.644-2.343.644-3.203 0-1.015-.26-1.784-.781-2.304-.521-.534-1.25-.834-2.188-.899v-.8zm17.285 3.165c1.211-2.475 3.398-3.712 6.562-3.712 1.094 0 1.986.13 2.676.391.703.26 1.276.645 1.719 1.152.443.508.762 1.166.957 1.973.195.807.293 1.888.293 3.242V42.29c0 .742.085 1.322.254 1.738.169.417.436.71.801.88.364.169.865.253 1.503.253V46c-2.656-.104-4.414-.156-5.273-.156-.82 0-2.559.052-5.215.156v-.84c.547 0 .977-.084 1.289-.254.313-.169.534-.462.664-.879.144-.416.215-.996.215-1.738V29.848c0-1.094-.182-1.92-.547-2.48-.351-.56-.996-.84-1.933-.84-.729 0-1.4.201-2.012.605-.599.404-1.074.963-1.426 1.68-.351.703-.527 1.484-.527 2.343V42.29c0 .742.071 1.322.215 1.738.143.417.371.71.683.88.313.169.736.253 1.27.253V46c-2.448-.104-4.102-.156-4.961-.156-.82 0-2.663.052-5.527.156v-.84c.638 0 1.139-.084 1.503-.254.378-.169.645-.462.801-.879.169-.416.254-.996.254-1.738V29.672c0-1.237-.189-2.129-.566-2.676-.378-.56-1.042-.84-1.992-.84v-.84c.846.079 1.673.118 2.48.118 2.357 0 4.303-.183 5.84-.547v3.593zm23.671 5.156c-.039.39-.059 1.015-.059 1.875 0 1.77.248 3.242.743 4.414.494 1.159 1.132 2.011 1.914 2.558.794.534 1.64.801 2.539.801 2.2 0 3.965-1.068 5.293-3.203l.703.234a9.977 9.977 0 01-1.582 3.067c-.703.937-1.602 1.706-2.696 2.304-1.08.586-2.317.88-3.711.88-1.835 0-3.45-.391-4.843-1.172-1.38-.782-2.461-1.967-3.242-3.555-.769-1.602-1.153-3.587-1.153-5.957 0-2.422.417-4.46 1.25-6.114.834-1.666 1.986-2.916 3.457-3.75 1.472-.833 3.171-1.25 5.098-1.25 5.013 0 7.519 2.956 7.519 8.868h-11.23zm6.191-.762c.039-2.083-.175-3.815-.644-5.195-.456-1.38-1.153-2.07-2.09-2.07-.951 0-1.745.592-2.383 1.777-.625 1.172-1.009 3.001-1.152 5.488h6.269zm10.019 5.41c.261 2.305.82 4.108 1.68 5.41.872 1.302 2.103 1.953 3.691 1.953.781 0 1.445-.234 1.992-.703.56-.481.84-1.198.84-2.148 0-.742-.169-1.406-.508-1.992a5.994 5.994 0 00-1.25-1.563c-.507-.456-1.269-1.08-2.285-1.875-1.237-1.002-2.168-1.79-2.793-2.363a8.501 8.501 0 01-1.582-2.031c-.442-.795-.664-1.693-.664-2.696 0-1.146.313-2.135.938-2.968.625-.834 1.465-1.465 2.519-1.895 1.055-.43 2.201-.645 3.438-.645 1.015 0 1.946.124 2.793.372.846.247 1.51.534 1.992.859.26.182.495.273.703.273.495 0 .807-.488.937-1.464h.879c-.104 1.34-.156 3.684-.156 7.03h-.879c-.234-1.744-.761-3.209-1.582-4.394-.807-1.198-1.985-1.797-3.535-1.797-.794 0-1.445.228-1.953.684-.508.456-.762 1.08-.762 1.875 0 .898.3 1.673.899 2.324a13.593 13.593 0 002.168 1.875 67.518 67.518 0 011.855 1.348c1.094.82 1.96 1.536 2.598 2.148a7.712 7.712 0 011.582 2.09c.403.768.605 1.654.605 2.656 0 1.172-.345 2.207-1.035 3.106-.677.898-1.595 1.595-2.754 2.09-1.159.481-2.428.722-3.808.722-1.42 0-2.657-.28-3.711-.84-.795-.403-1.42-.683-1.875-.84a.647.647 0 00-.196-.038c-.429 0-.742.475-.937 1.425h-.879c.104-1.523.156-4.186.156-7.988h.879zm19.277 0c.26 2.305.82 4.108 1.679 5.41.873 1.302 2.103 1.953 3.692 1.953.781 0 1.445-.234 1.992-.703.56-.481.84-1.198.84-2.148 0-.742-.169-1.406-.508-1.992a6.015 6.015 0 00-1.25-1.563c-.508-.456-1.27-1.08-2.285-1.875-1.237-1.002-2.168-1.79-2.793-2.363a8.501 8.501 0 01-1.582-2.031c-.443-.795-.664-1.693-.664-2.696 0-1.146.312-2.135.937-2.968.625-.834 1.465-1.465 2.52-1.895 1.054-.43 2.2-.645 3.437-.645 1.016 0 1.947.124 2.793.372.847.247 1.511.534 1.992.859.261.182.495.273.704.273.494 0 .807-.488.937-1.464h.879c-.104 1.34-.156 3.684-.156 7.03h-.879c-.235-1.744-.762-3.209-1.582-4.394-.808-1.198-1.986-1.797-3.535-1.797-.795 0-1.446.228-1.954.684-.507.456-.761 1.08-.761 1.875 0 .898.299 1.673.898 2.324a13.637 13.637 0 002.168 1.875 66.377 66.377 0 011.856 1.348c1.093.82 1.959 1.536 2.597 2.148a7.692 7.692 0 011.582 2.09c.404.768.606 1.654.606 2.656 0 1.172-.345 2.207-1.035 3.106-.677.898-1.595 1.595-2.754 2.09-1.159.481-2.429.722-3.809.722-1.419 0-2.656-.28-3.711-.84-.794-.403-1.419-.683-1.875-.84a.642.642 0 00-.195-.038c-.43 0-.742.475-.938 1.425h-.879c.105-1.523.157-4.186.157-7.988h.879z" fill="#fff"/></svg>