<svg width="192" height="35" fill="none" xmlns="http://www.w3.org/2000/svg"><path d="M55.91 18.582c1.659.128 3.013.438 4.06.93 1.058.483 1.819 1.08 2.284 1.79.474.703.71 1.46.71 2.27 0 1.158-.31 2.147-.929 2.967-.62.811-1.508 1.426-2.666 1.846-1.157.41-2.534.615-4.129.615-.4 0-1.089-.014-2.064-.041-.966-.027-1.942-.041-2.926-.041-1.923 0-3.359.027-4.307.082v-.56c.62-.028 1.071-.1 1.354-.22.282-.118.474-.336.574-.655.11-.32.164-.83.164-1.532v-13.89c0-.702-.055-1.213-.164-1.532-.1-.319-.292-.537-.574-.656-.283-.118-.734-.191-1.354-.219v-.56c.94.054 2.356.082 4.252.082.748 0 1.577-.01 2.489-.028a113.31 113.31 0 011.9-.027c1.504 0 2.77.187 3.8.56 1.04.365 1.82.88 2.339 1.546.52.656.779 1.421.779 2.296 0 .693-.2 1.372-.602 2.038-.4.665-1.025 1.257-1.873 1.777-.838.51-1.877.88-3.117 1.107v.055zm-2.215-.11c1.212 0 2.06-.414 2.543-1.244.492-.829.739-1.936.739-3.322 0-1.403-.22-2.447-.657-3.13-.437-.693-1.135-1.04-2.092-1.04-.5 0-.875.069-1.12.205-.238.128-.402.36-.493.698-.082.328-.123.83-.123 1.504v6.33h1.203zm-1.203 7.561c0 .675.046 1.171.137 1.49.1.32.282.538.547.657.264.118.679.177 1.244.177 2.597 0 3.896-1.636 3.896-4.908 0-1.467-.373-2.584-1.12-3.35-.739-.765-1.915-1.148-3.528-1.148h-1.176v7.082zm16.611-5.687c-.027.273-.04.71-.04 1.312 0 1.24.173 2.27.519 3.09.346.811.793 1.408 1.34 1.791a3.13 3.13 0 001.777.56c1.54 0 2.776-.747 3.705-2.242l.493.165a6.977 6.977 0 01-1.108 2.146 5.806 5.806 0 01-1.887 1.613c-.756.41-1.622.616-2.597.616-1.286 0-2.416-.274-3.391-.82-.966-.548-1.723-1.377-2.27-2.49-.537-1.12-.806-2.51-.806-4.169 0-1.695.291-3.122.875-4.28.583-1.166 1.39-2.041 2.42-2.624 1.03-.584 2.22-.875 3.568-.875 3.51 0 5.264 2.069 5.264 6.207h-7.862zm4.335-.534c.027-1.458-.124-2.67-.452-3.636-.319-.966-.806-1.45-1.463-1.45-.665 0-1.22.415-1.668 1.245-.437.82-.706 2.1-.806 3.841h4.388zm12.892-2.625c0-.774-.187-1.385-.56-1.832-.365-.446-.94-.67-1.723-.67-.365 0-.73.06-1.094.178a2.18 2.18 0 00-.902.506c.52.173.925.447 1.216.82.292.365.438.825.438 1.381a1.938 1.938 0 01-1.08 1.764c-.346.173-.743.26-1.19.26-.601 0-1.084-.205-1.449-.616-.355-.41-.533-.925-.533-1.544 0-.967.52-1.75 1.559-2.352 1.139-.629 2.56-.943 4.265-.943 1.914 0 3.277.419 4.088 1.258.392.391.657.879.793 1.462.137.584.205 1.4.205 2.448v7.615c0 .456.041.78.123.97.091.183.246.274.465.274.3 0 .647-.16 1.04-.479l.286.479a4.235 4.235 0 01-1.394.78c-.501.163-1.103.245-1.805.245-.948 0-1.631-.21-2.05-.628-.42-.42-.63-.967-.63-1.641-.455.756-1.052 1.326-1.79 1.709a5.165 5.165 0 01-2.366.56c-1.066 0-1.923-.278-2.57-.834-.638-.565-.957-1.348-.957-2.351 0-.975.319-1.782.957-2.42.638-.638 1.627-1.203 2.967-1.695l1.422-.534c.802-.31 1.38-.624 1.736-.943.355-.319.533-.67.533-1.053v-2.174zm0 3.323c-.118.2-.314.41-.588.629-.264.21-.647.47-1.148.779-.593.41-1.058.875-1.395 1.395-.337.51-.506 1.148-.506 1.914 0 .729.16 1.276.479 1.64.319.356.738.533 1.258.533.738 0 1.371-.382 1.9-1.148V20.51zm20.713 5.441c0 .866.132 1.495.396 1.887.274.383.739.574 1.395.574V29a18.58 18.58 0 00-1.736-.082c-1.641 0-3.004.132-4.088.396v-2.529c-.848 1.741-2.352 2.611-4.512 2.611-1.395 0-2.41-.364-3.049-1.093-.31-.347-.533-.807-.67-1.381-.127-.574-.191-1.326-.191-2.256V17.57c0-.857-.137-1.48-.41-1.873-.265-.392-.725-.588-1.381-.588v-.588c.592.055 1.171.082 1.736.082 1.632 0 2.994-.127 4.088-.382v11.593c0 .775.114 1.363.342 1.764.237.392.679.588 1.326.588.492 0 .943-.141 1.354-.424.419-.291.752-.683.998-1.176a3.704 3.704 0 00.369-1.654V17.57c0-.857-.137-1.48-.41-1.873-.265-.392-.725-.588-1.381-.588v-.588c.592.055 1.171.082 1.736.082 1.632 0 2.994-.127 4.088-.382v11.73zm12.045-11.402v.56h-3.309v11.293c0 .556.101.953.301 1.19.201.228.51.342.93.342.793 0 1.426-.561 1.9-1.682l.479.26c-.702 1.923-1.978 2.884-3.828 2.884-1.231 0-2.165-.319-2.803-.957-.392-.382-.661-.865-.807-1.449-.137-.592-.205-1.408-.205-2.447v-9.434h-2.351v-.56h2.351V10.83c1.54 0 2.885-.3 4.033-.902v4.62h3.309zm9.693-.027c.875.054 1.782.082 2.721.082.939 0 1.659-.028 2.16-.082v.56c-.392.1-.747.333-1.066.697-.31.365-.602.934-.875 1.71l-5.004 14.081c-.374.976-.784 1.64-1.231 1.996-.547.465-1.362.698-2.447.698-.483 0-.962-.082-1.436-.246a2.716 2.716 0 01-1.162-.739c-.3-.337-.451-.756-.451-1.258 0-.574.205-1.034.615-1.38.411-.347.953-.52 1.627-.52.629 0 1.135.155 1.518.465.392.31.588.743.588 1.299 0 .383-.128.738-.383 1.066-.246.337-.588.588-1.025.752.136.018.351.027.642.027 1.167 0 2.019-.738 2.557-2.214l.451-1.34-5.947-13.494c-.292-.647-.584-1.071-.875-1.272-.283-.2-.57-.3-.862-.3v-.588a43.59 43.59 0 003.842.163c1.103 0 2.402-.054 3.897-.164v.588a8.38 8.38 0 00-.944.041 1.336 1.336 0 00-.588.205c-.154.11-.232.288-.232.534 0 .218.064.483.191.793l3.432 8.271 1.914-5.387c.301-.893.451-1.64.451-2.242 0-.71-.182-1.248-.547-1.613-.364-.374-.875-.583-1.531-.629v-.56zm11.539 2.214c.848-1.731 2.379-2.597 4.594-2.597.766 0 1.39.09 1.873.273.492.182.893.451 1.203.807.31.355.533.816.67 1.38.137.566.205 1.322.205 2.27v7.533c0 .52.059.925.178 1.217.118.292.305.497.56.615.256.119.607.178 1.053.178V29c-1.859-.073-3.09-.11-3.691-.11-.574 0-1.791.037-3.651.11v-.588c.383 0 .684-.06.903-.178.219-.118.373-.323.465-.615.1-.291.15-.697.15-1.217v-8.709c0-.765-.128-1.344-.383-1.736-.246-.392-.697-.588-1.353-.588-.511 0-.98.141-1.409.424a2.956 2.956 0 00-.998 1.176 3.618 3.618 0 00-.369 1.64v7.793c0 .52.05.925.151 1.217.1.292.259.497.478.615.219.119.515.178.889.178V29c-1.714-.073-2.871-.11-3.473-.11-.574 0-1.864.037-3.869.11v-.588c.447 0 .798-.06 1.053-.178a1.04 1.04 0 00.56-.615c.119-.291.178-.697.178-1.217V17.57c0-.866-.132-1.49-.396-1.873-.265-.392-.73-.588-1.395-.588v-.588a18.89 18.89 0 001.736.082c1.65 0 3.013-.127 4.088-.382v2.515zm16.01 3.61c-.027.273-.041.71-.041 1.312 0 1.24.173 2.27.52 3.09.346.811.793 1.408 1.339 1.791a3.13 3.13 0 001.778.56c1.54 0 2.775-.747 3.705-2.242l.492.165a6.982 6.982 0 01-1.107 2.146 5.811 5.811 0 01-1.887 1.613c-.757.41-1.623.616-2.598.616-1.285 0-2.415-.274-3.39-.82-.967-.548-1.723-1.377-2.27-2.49-.538-1.12-.807-2.51-.807-4.169 0-1.695.292-3.122.875-4.28.584-1.166 1.39-2.041 2.42-2.624 1.03-.584 2.22-.875 3.569-.875 3.509 0 5.263 2.069 5.263 6.207h-7.861zm4.334-.534c.027-1.458-.123-2.67-.451-3.636-.319-.966-.807-1.45-1.463-1.45-.665 0-1.221.415-1.668 1.245-.437.82-.706 2.1-.807 3.841h4.389zm6.453 3.788c.182 1.613.574 2.875 1.176 3.787.611.911 1.472 1.367 2.584 1.367.547 0 1.012-.164 1.394-.492.392-.338.588-.839.588-1.504 0-.52-.118-.985-.355-1.395a4.218 4.218 0 00-.875-1.093 33.26 33.26 0 00-1.6-1.313 45.516 45.516 0 01-1.955-1.654 5.957 5.957 0 01-1.107-1.422c-.31-.556-.465-1.185-.465-1.887 0-.802.219-1.495.656-2.078.438-.583 1.026-1.025 1.764-1.326a6.33 6.33 0 012.406-.451 6.95 6.95 0 011.955.26c.593.173 1.057.373 1.395.601.182.128.346.191.492.191.346 0 .565-.341.656-1.025h.615c-.073.939-.109 2.58-.109 4.922h-.615c-.164-1.222-.533-2.247-1.108-3.076-.565-.839-1.39-1.258-2.474-1.258-.556 0-1.012.16-1.367.478-.356.32-.534.757-.534 1.313 0 .629.21 1.171.629 1.627.42.456.925.893 1.518 1.312.592.42 1.025.734 1.299.944.765.574 1.371 1.075 1.818 1.504.456.428.825.916 1.107 1.463.283.537.424 1.157.424 1.859a3.47 3.47 0 01-.724 2.174c-.474.629-1.117 1.116-1.928 1.463-.811.337-1.7.506-2.666.506-.994 0-1.859-.196-2.598-.588-.556-.283-.993-.479-1.312-.588a.456.456 0 00-.137-.028c-.301 0-.519.333-.656.998h-.615c.072-1.066.109-2.93.109-5.591h.615zm12.934 0c.182 1.613.574 2.875 1.176 3.787.61.911 1.472 1.367 2.584 1.367.546 0 1.011-.164 1.394-.492.392-.338.588-.839.588-1.504 0-.52-.119-.985-.356-1.395a4.177 4.177 0 00-.875-1.093 32.637 32.637 0 00-1.599-1.313 44.895 44.895 0 01-1.955-1.654 5.935 5.935 0 01-1.108-1.422c-.31-.556-.464-1.185-.464-1.887 0-.802.218-1.495.656-2.078.437-.583 1.025-1.025 1.763-1.326a6.325 6.325 0 012.407-.451c.711 0 1.362.086 1.955.26.592.173 1.057.373 1.394.601.183.128.347.191.492.191.347 0 .566-.341.657-1.025h.615c-.073.939-.109 2.58-.109 4.922h-.616c-.164-1.222-.533-2.247-1.107-3.076-.565-.839-1.39-1.258-2.475-1.258-.556 0-1.011.16-1.367.478-.355.32-.533.757-.533 1.313 0 .629.21 1.171.629 1.627a9.51 9.51 0 001.517 1.312c.593.42 1.026.734 1.299.944.766.574 1.372 1.075 1.819 1.504.455.428.824.916 1.107 1.463.283.537.424 1.157.424 1.859 0 .82-.242 1.545-.725 2.174-.474.629-1.116 1.116-1.927 1.463-.812.337-1.7.506-2.666.506-.994 0-1.86-.196-2.598-.588-.556-.283-.994-.479-1.313-.588a.445.445 0 00-.136-.028c-.301 0-.52.333-.657.998h-.615c.073-1.066.11-2.93.11-5.591h.615z" fill="#141414"/><path d="M16.5 33.75c8.422 0 15.25-6.828 15.25-15.25S24.922 3.25 16.5 3.25 1.25 10.078 1.25 18.5 8.078 33.75 16.5 33.75z" stroke="#7A9CA5" stroke-width="2.5"/><path d="M24.766 14.184c.126 1.305-.347 2.613-1.313 3.637l-5.782 6.147-7.964.766-.67-6.964 5.792-6.14c.966-1.023 2.347-1.68 3.839-1.823l5.218.125.88 4.252zM20 14L5 29m16-9h-7m6-6h-7" stroke="#7A9CA5" stroke-width="2.5" stroke-linecap="round" stroke-linejoin="round"/></svg>